Coordinates
version=1
nRows=14
nColumns=46
inDegrees=yes

Units are S.I. units (second, meters, Newtons, ...)
Angles are in degrees.

endheader
time	pelvis_tilt	pelvis_list	pelvis_rotation	pelvis_tx	pelvis_ty	pelvis_tz	bb_angle	bb_tx	bb_ty	bb_tz	hip_flexion_r	hip_adduction_r	hip_rotation_r	knee_angle_r	knee_angle_r_beta	ankle_angle_r	subtalar_angle_r	mtp_angle_r	crank_angle_r	hip_flexion_l	hip_adduction_l	hip_rotation_l	knee_angle_l	knee_angle_l_beta	ankle_angle_l	subtalar_angle_l	mtp_angle_l	crank_angle_l	lumbar_extension	lumbar_bending	lumbar_rotation	arm_flex_r	arm_add_r	arm_rot_r	elbow_flex_r	pro_sup_r	wrist_flex_r	wrist_dev_r	arm_flex_l	arm_add_l	arm_rot_l	elbow_flex_l	pro_sup_l	wrist_flex_l	wrist_dev_l
      2.50000000	    -31.98583542	      3.95886390	      8.05136937	      0.23196774	      1.03493293	     -0.23335573	      0.00000000	      0.50000000	      0.00000000	      0.25000000	     49.35581955	     -9.65209256	      3.73384885	     54.48369600	      0.95091988	     20.12859215	     -8.27473899	      0.00000000	      0.00000000	     94.91794029	      1.01068447	     -0.09796517	     90.72827542	      1.58350713	     17.67847269	     -0.39692561	      0.00000000	      0.00000000	    -45.61016793	     -1.80154120	    -10.30766523	     62.58649366	    -20.16620297	     18.24337850	     80.88569482	     48.25228095	      0.00000000	      0.00000000	     69.13258886	    -35.64564868	     29.36505370	     88.22903997	     48.50249249	      0.00000000	      0.00000000
      2.50500000	    -31.79323657	      3.95940900	      8.20660064	      0.23404939	      1.03578476	     -0.23331992	      0.00000000	      0.50000000	      0.00000000	      0.25000000	     48.86152222	     -9.75067703	      3.58155339	     54.08494190	      0.94396031	     19.74553151	     -8.38011570	      0.00000000	      0.00000000	     94.63890776	      1.21712540	      0.00397457	     91.00961309	      1.58841740	     17.93968877	     -0.44807513	      0.00000000	      0.00000000	    -45.61725488	     -1.73855502	    -10.45922952	     62.21646749	    -19.80631966	     18.37637977	     80.47904531	     48.26037528	      0.00000000	      0.00000000	     68.66219747	    -35.72646618	     29.48977338	     88.00391917	     48.49168637	      0.00000000	      0.00000000
      2.51000000	    -31.71034244	      3.98506422	      8.25159324	      0.23601352	      1.03641396	     -0.23320214	      0.00000000	      0.50000000	      0.00000000	      0.25000000	     48.57480285	     -9.79354939	      3.57583490	     53.80894237	      0.93914321	     19.36662608	     -8.20333893	      0.00000000	      0.00000000	     94.46635950	      1.30787220	      0.04562049	     91.28336447	      1.59319526	     18.13478789	     -0.56976979	      0.00000000	      0.00000000	    -45.56982085	     -1.81866976	    -10.55632590	     61.90540607	    -19.69643177	     18.48757518	     80.32485134	     48.26329323	      0.00000000	      0.00000000	     68.41696985	    -35.71522652	     29.58670716	     87.93458848	     48.49461978	      0.00000000	      0.00000000
      2.51500000	    -31.50324568	      3.99962039	      8.31539351	      0.23811804	      1.03737270	     -0.23318358	      0.00000000	      0.50000000	      0.00000000	      0.25000000	     48.15781967	     -9.87694736	      3.43791695	     53.53786834	      0.93441208	     18.89478278	     -8.04576104	      0.00000000	      0.00000000	     94.08522514	      1.45890495	      0.14618855	     91.45836393	      1.59624958	     18.46104853	     -0.72084642	      0.00000000	      0.00000000	    -45.56629642	     -1.83420133	    -10.58985778	     61.39243144	    -19.47569562	     18.67508814	     80.03261761	     48.26165517	      0.00000000	      0.00000000	     67.93765785	    -35.71120265	     29.74713486	     87.71496996	     48.48285279	      0.00000000	      0.00000000
      2.52000000	    -31.38340591	      3.97994123	      8.38400805	      0.24008387	      1.03797785	     -0.23315815	      0.00000000	      0.50000000	      0.00000000	      0.25000000	     47.91565479	     -9.92975941	      3.36914059	     53.44744740	      0.93283393	     18.50944301	     -7.87837928	      0.00000000	      0.00000000	     93.86244711	      1.60577143	      0.25912317	     91.70829850	      1.60061176	     18.66851976	     -0.81812013	      0.00000000	      0.00000000	    -45.55174871	     -1.86240643	    -10.66459612	     61.14791762	    -19.37755852	     18.75823878	     79.88338235	     48.25817618	      0.00000000	      0.00000000	     67.71145896	    -35.69598090	     29.82017875	     87.59095096	     48.47355390	      0.00000000	      0.00000000
      2.52500000	    -31.07408145	      3.89684119	      8.48633884	      0.24234071	      1.03921303	     -0.23326807	      0.00000000	      0.50000000	      0.00000000	      0.25000000	     47.39031047	     -9.99433034	      3.04230127	     53.21308407	      0.92874352	     17.99162526	     -7.73475718	      0.00000000	      0.00000000	     93.31120522	      1.81672509	      0.50086632	     91.80118784	      1.60223299	     19.17101403	     -0.90102449	      0.00000000	      0.00000000	    -45.60423298	     -1.69921571	    -10.70088111	     60.66460180	    -19.04355323	     18.90771591	     79.41660051	     48.23254030	      0.00000000	      0.00000000	     67.18207184	    -35.67068063	     29.92320381	     87.17285860	     48.42542539	      0.00000000	      0.00000000
      2.53000000	    -30.76651369	      3.73686631	      8.61478703	      0.24447072	      1.04030447	     -0.23324785	      0.00000000	      0.50000000	      0.00000000	      0.25000000	     46.91888966	     -9.96993929	      2.72078732	     53.09533525	      0.92668842	     17.40546817	     -7.64272535	      0.00000000	      0.00000000	     92.82898622	      1.97810654	      0.73239037	     91.92435211	      1.60438261	     19.61045181	     -0.79194388	      0.00000000	      0.00000000	    -45.62100811	     -1.31395898	    -10.77673406	     60.80647189	    -18.04940788	     18.88832009	     78.20276670	     48.15518871	      0.00000000	      0.00000000	     66.60477596	    -35.52421042	     29.45067851	     86.18005739	     48.24665271	      0.00000000	      0.00000000
      2.53500000	    -30.61517640	      3.69775413	      8.60274770	      0.24640916	      1.04111687	     -0.23326144	      0.00000000	      0.50000000	      0.00000000	      0.25000000	     46.75263862	     -9.99091646	      2.61574747	     53.15256302	      0.92768723	     16.84004105	     -7.38451888	      0.00000000	      0.00000000	     92.47138223	      2.07739414	      0.89093446	     92.02707955	      1.60617554	     19.95378437	     -0.99211675	      0.00000000	      0.00000000	    -45.62318236	     -1.36900494	    -10.76997771	     60.42788367	    -17.96077736	     18.98627373	     78.00433453	     48.14955200	      0.00000000	      0.00000000	     66.28567610	    -35.52149706	     29.53057527	     86.10370283	     48.24846452	      0.00000000	      0.00000000
      2.54000000	    -30.39121963	      3.61205549	      8.70122278	      0.24864261	      1.04223111	     -0.23343906	      0.00000000	      0.50000000	      0.00000000	      0.25000000	     46.40788052	    -10.08601888	      2.27789953	     53.06246200	      0.92611467	     16.23268272	     -7.10098292	      0.00000000	      0.00000000	     91.97899588	      2.25322170	      1.03167732	     92.06526610	      1.60684202	     20.44701000	     -1.18939591	      0.00000000	      0.00000000	    -45.60899494	     -1.25523506	    -10.80292362	     59.94856458	    -17.71200602	     19.03957600	     77.58939029	     48.12091028	      0.00000000	      0.00000000	     65.76118435	    -35.49906697	     29.59402551	     85.81292333	     48.21881099	      0.00000000	      0.00000000
      2.54500000	    -30.12987272	      3.45698962	      8.72743210	      0.25068012	      1.04315581	     -0.23349943	      0.00000000	      0.50000000	      0.00000000	      0.25000000	     46.13764534	    -10.05307925	      1.98450126	     53.16946887	      0.92798229	     15.51886098	     -6.69803822	      0.00000000	      0.00000000	     91.50460341	      2.38336715	      1.32583733	     92.15187210	      1.60835358	     20.87091945	     -1.33563701	      0.00000000	      0.00000000	    -45.64249249	     -1.32708298	    -10.87052384	     59.47946043	    -17.52055124	     19.05697738	     77.17424822	     48.07855323	      0.00000000	      0.00000000	     65.51601830	    -35.47842632	     29.60889485	     85.59922683	     48.19167903	      0.00000000	      0.00000000
      2.55000000	    -29.72813684	      3.26558981	      8.95459391	      0.25294669	      1.04455699	     -0.23401162	      0.00000000	      0.50000000	      0.00000000	      0.25000000	     45.59949480	    -10.19772232	      1.36370045	     53.14478303	      0.92755144	     14.98233308	     -6.29294646	      0.00000000	      0.00000000	     90.82277287	      2.72942001	      1.67746472	     92.14036947	      1.60815282	     21.42200619	     -1.22427632	      0.00000000	      0.00000000	    -45.72232710	     -0.96808415	    -11.05650012	     59.45215160	    -16.29656216	     18.45712154	     75.62884263	     47.88009777	      0.00000000	      0.00000000	     65.01590816	    -35.18991508	     29.21961557	     84.42083567	     47.99069092	      0.00000000	      0.00000000
      2.55500000	    -29.55177430	      3.16380563	      8.92594805	      0.25503516	      1.04553355	     -0.23402695	      0.00000000	      0.50000000	      0.00000000	      0.25000000	     45.45684187	    -10.19251644	      1.15178922	     53.27209987	      0.92977354	     14.15259570	     -5.89775413	      0.00000000	      0.00000000	     90.36251312	      2.76782253	      1.84325541	     92.13509468	      1.60806076	     21.89971176	     -1.46777981	      0.00000000	      0.00000000	    -45.68178422	     -0.93693194	    -10.97465390	     59.01241986	    -16.13258931	     18.47767166	     75.31169000	     47.85578073	      0.00000000	      0.00000000	     64.64315583	    -35.24705441	     29.23064252	     84.22240784	     47.96915792	      0.00000000	      0.00000000
      2.56000000	    -29.28427713	      2.94036899	      9.07825428	      0.25723580	      1.04671762	     -0.23450864	      0.00000000	      0.50000000	      0.00000000	      0.25000000	     45.12093964	    -10.26565044	      0.61216283	     53.30001102	      0.93026068	     13.51774160	     -5.56930424	      0.00000000	      0.00000000	     89.80872756	      3.02072713	      2.19501837	     92.07430751	      1.60699982	     22.36534486	     -1.50962575	      0.00000000	      0.00000000	    -45.61209084	     -0.60260473	    -11.09715778	     59.02129239	    -14.80902784	     17.75638959	     73.73736591	     47.69056423	      0.00000000	      0.00000000	     63.98236276	    -34.92099259	     28.45582423	     83.14626109	     47.77057712	      0.00000000	      0.00000000
      2.56500000	    -29.10756913	      2.80476711	      9.09048672	      0.25934822	      1.04770366	     -0.23470082	      0.00000000	      0.50000000	      0.00000000	      0.25000000	     45.00242610	    -10.29831860	      0.33470573	     53.51179258	      0.93395697	     12.71856406	     -5.15084494	      0.00000000	      0.00000000	     89.33558582	      3.06577657	      2.35568899	     91.99209421	      1.60556493	     22.75305858	     -1.66131615	      0.00000000	      0.00000000	    -45.57747949	     -0.49268649	    -10.99645800	     58.60328641	    -14.71250483	     17.77379727	     73.49548310	     47.67583245	      0.00000000	      0.00000000	     63.60281459	    -35.00045233	     28.46784032	     82.96990285	     47.75298436	      0.00000000	      0.00000000
